<?xml version="1.0" encoding="UTF-8"?>
<svg width="277px" height="231px" viewBox="0 0 277 231" version="1.1" xmlns="http://www.w3.org/2000/svg" xmlns:xlink="http://www.w3.org/1999/xlink">
    <!-- Generator: Sketch 45.2 (43514) - http://www.bohemiancoding.com/sketch -->
    <title>chemistry</title>
    <desc>Created with Sketch.</desc>
    <defs>
        <linearGradient x1="49.9960834%" y1="-0.0476536319%" x2="49.9960834%" y2="99.9366564%" id="linearGradient-1">
            <stop stop-color="#FFE473" offset="0%"></stop>
            <stop stop-color="#FFDE73" offset="18.14%"></stop>
            <stop stop-color="#FFCE73" offset="41.89%"></stop>
            <stop stop-color="#FFB373" offset="68.74%"></stop>
            <stop stop-color="#FF8D73" offset="97.68%"></stop>
            <stop stop-color="#FF8A73" offset="100%"></stop>
        </linearGradient>
        <linearGradient x1="0.020661157%" y1="50.1565952%" x2="99.9380165%" y2="50.1565952%" id="linearGradient-2">
            <stop stop-color="#FFE473" offset="0%"></stop>
            <stop stop-color="#FFDE73" offset="18.14%"></stop>
            <stop stop-color="#FFCE73" offset="41.89%"></stop>
            <stop stop-color="#FFB373" offset="68.74%"></stop>
            <stop stop-color="#FF8D73" offset="97.68%"></stop>
            <stop stop-color="#FF8A73" offset="100%"></stop>
        </linearGradient>
        <linearGradient x1="-0.12605042%" y1="49.68%" x2="99.8319328%" y2="49.68%" id="linearGradient-3">
            <stop stop-color="#FFE473" offset="0%"></stop>
            <stop stop-color="#FFDE73" offset="18.14%"></stop>
            <stop stop-color="#FFCE73" offset="41.89%"></stop>
            <stop stop-color="#FFB373" offset="68.74%"></stop>
            <stop stop-color="#FF8D73" offset="97.68%"></stop>
            <stop stop-color="#FF8A73" offset="100%"></stop>
        </linearGradient>
        <linearGradient x1="-0.636363636%" y1="49.5909091%" x2="100%" y2="49.5909091%" id="linearGradient-4">
            <stop stop-color="#FFE473" offset="0%"></stop>
            <stop stop-color="#FFDE73" offset="18.14%"></stop>
            <stop stop-color="#FFCE73" offset="41.89%"></stop>
            <stop stop-color="#FFB373" offset="68.74%"></stop>
            <stop stop-color="#FF8D73" offset="97.68%"></stop>
            <stop stop-color="#FF8A73" offset="100%"></stop>
        </linearGradient>
        <linearGradient x1="0.255242292%" y1="50.030303%" x2="100.067902%" y2="50.030303%" id="linearGradient-5">
            <stop stop-color="#FFE473" offset="0%"></stop>
            <stop stop-color="#FFDE73" offset="18.14%"></stop>
            <stop stop-color="#FFCE73" offset="41.89%"></stop>
            <stop stop-color="#FFB373" offset="68.74%"></stop>
            <stop stop-color="#FF8D73" offset="97.68%"></stop>
            <stop stop-color="#FF8A73" offset="100%"></stop>
        </linearGradient>
    </defs>
    <g id="Page-1" stroke="none" stroke-width="1" fill="none" fill-rule="evenodd">
        <g id="chemistry" transform="translate(-5.000000, 2.000000)">
            <g id="background" transform="translate(26.000000, 61.000000)">
                <g id="color_2_" fill-rule="nonzero">
                    <path d="M211,159 C211.9,160.8 212.3,162.9 212.3,165 L142.3,165 L142.3,151 L152.3,151 L198.3,151 C203.9,151 208.8,154.2 211,159 Z" id="Shape" fill="#FFF7F5"></path>
                    <path d="M197.3,63 C200.1,63 202.3,65.2 202.3,68 C202.3,69.4 201.7,70.6 200.8,71.5 C199.9,72.4 198.7,73 197.3,73 L190.3,73 L170.3,73 L157.3,73 C154.5,73 152.3,75.2 152.3,78 L152.3,151 L142.3,151 L142.3,97.8 L142.3,73 C142.3,67.5 146.8,63 152.3,63 L170.3,63 L190.3,63 L197.3,63 Z" id="Shape" fill="#FFF7F5"></path>
                    <path d="M195.3,48 L195.3,50 C195.3,52.2 193.5,54 191.3,54 L190.3,54 L170.3,54 L169.3,54 C167.1,54 165.3,52.2 165.3,50 L165.3,48 C165.3,45.8 167.1,44 169.3,44 L191.3,44 C193.5,44 195.3,45.8 195.3,48 Z" id="Shape" fill="#F3FCFF"></path>
                    <path d="M190.3,95 L190.3,123 C190.3,125.8 189.2,128.3 187.4,130.1 C185.6,131.9 183.1,133 180.3,133 C174.8,133 170.3,128.5 170.3,123 L170.3,95 L170.3,95 L190.3,95 Z" id="Shape" fill="#FFEEF4"></path>
                    <polygon id="Shape" fill="#F3FCFF" points="190.3 73 190.3 95 170.3 95 170.3 95 170.3 73"></polygon>
                    <rect id="Rectangle-path" fill="#F3FCFF" x="170.3" y="54" width="20" height="9"></rect>
                    <circle id="Oval" fill="#FFEEF4" cx="184.9" cy="3.8" r="3"></circle>
                    <path d="M174.9,18.8 C176,18.8 176.9,19.7 176.9,20.8 C176.9,21.9 176,22.8 174.9,22.8 C173.8,22.8 172.9,21.9 172.9,20.8 C172.9,19.7 173.8,18.8 174.9,18.8 Z" id="Shape" fill="#FFEEF4"></path>
                    <path d="M120.9,95 C120.9,95 122.1,101.4 120.9,118.7 C118.1,150 102.3,163.7 102.3,163.7 L69.5,163.7 C68.5,164.2 67.5,164.6 66.4,165 L39.3,165 C16.8,156.3 0.9,134.5 0.9,109 C0.9,104.2 1.5,99.5 2.5,95 L120.9,95 Z M49.8,144.4 C49.8,143.3 48.9,142.4 47.8,142.4 C46.7,142.4 45.8,143.3 45.8,144.4 C45.8,145.5 46.7,146.4 47.8,146.4 C48.9,146.4 49.8,145.5 49.8,144.4 Z M25.8,109.4 C25.8,107.7 24.5,106.4 22.8,106.4 C21.1,106.4 19.8,107.7 19.8,109.4 C19.8,111 21.1,112.4 22.8,112.4 C24.5,112.4 25.8,111.1 25.8,109.4 Z" id="Shape" fill="#E7F2FF"></path>
                    <path d="M102.3,65.6 L114.3,79.2 L119.2,95 L2.6,95 C7.7,73.4 24.5,56.4 46,50.9 L46,37 L49.9,37 L50.7,40.7 C51.1,42.6 52.7,43.9 54.6,43.9 L61,43.9 L67.4,43.9 C69.3,43.9 71,42.5 71.3,40.7 L72.1,37 L76,37 L76,50.9 C86,53.5 95,58.6 102.3,65.6 Z" id="Shape" fill="#F3FCFF"></path>
                    <path d="M85.9,23 L85.9,31 C85.9,34.3 83.2,37 79.9,37 L75.9,37 L72,37 L49.8,37 L45.9,37 L41.9,37 C38.6,37 35.9,34.3 35.9,31 L35.9,23 C35.9,19.7 38.6,17 41.9,17 L45.8,17 L76,17 L79.9,17 C83.2,17 85.9,19.7 85.9,23 Z" id="Shape" fill="#F3FCFF"></path>
                    <path d="M71.6,2.4 C75.4,2.4 78.2,5.9 77.5,9.6 L76,17 L45.8,17 L44.3,9.6 C43.5,5.9 46.4,2.4 50.2,2.4 L71.6,2.4 L71.6,2.4 Z" id="Shape" fill="#F3FCFF"></path>
                    <path d="M72,37 L71.2,40.7 C70.8,42.6 69.2,43.9 67.3,43.9 L60.9,43.9 L54.5,43.9 C52.6,43.9 50.9,42.5 50.6,40.7 L49.8,37 L72,37 Z" id="Shape" fill="#F3FCFF"></path>
                    <path d="M47.8,142.4 C48.9,142.4 49.8,143.3 49.8,144.4 C49.8,145.5 48.9,146.4 47.8,146.4 C46.7,146.4 45.8,145.5 45.8,144.4 C45.8,143.3 46.6,142.4 47.8,142.4 Z" id="Shape" fill="#E7F2FF"></path>
                    <path d="M22.8,106.4 C24.5,106.4 25.8,107.7 25.8,109.4 C25.8,111 24.5,112.4 22.8,112.4 C21.1,112.4 19.8,111 19.8,109.4 C19.8,107.8 21.1,106.4 22.8,106.4 Z" id="Shape" fill="#E7F2FF"></path>
                    <path d="M112.7,83.5 C114.6,83.5 114.6,80.5 112.7,80.5 C110.7,80.5 110.7,83.5 112.7,83.5 L112.7,83.5 Z" id="Shape" fill="#FFFFFF"></path>
                </g>
                <g id="shadows" transform="translate(36.000000, 2.000000)" fill-rule="nonzero">
                    <path d="M24.5,20.1 L49.8,20.1 L49.8,15.3 L26.1,15.3 C26.7,15.1 27.3,15 27.9,15 L13.9,15 C13.3,15 12.7,15.1 12.1,15.3 L0.9,15.3 L0.9,20.1 L6.5,20.1 C7.3,20.1 7.9,20.7 7.9,21.5 C7.9,21.5 7.9,21.5 7.9,21.5 L7.9,29 C7.9,32.3 10.6,35 13.9,35 L27.9,35 C24.6,35 21.9,32.3 21.9,29 L21.9,22.7 L21.9,22.7 C21.9,21.2 23.1,20.1 24.5,20.1 Z" id="Shape" fill="#FFFFFF"></path>
                    <path d="M39.9,4.8 L39.9,1 L27.7,1 C28.5,0.6 29.3,0.4 30.3,0.4 L20.3,0.4 C19.4,0.4 18.5,0.6 17.7,1 L9.4,1 L9.4,4.8 L12.4,4.8 C13.4,4.8 14.2,5.6 14.3,6.6 C14.3,6.9 14.3,7.3 14.4,7.6 L15.9,15 L25.9,15 L24.4,7.6 C24.4,7.6 24.4,7.6 24.4,7.6 C24.1,6.2 25.3,4.8 26.8,4.8 L39.9,4.8 Z" id="Shape" fill="#FFFFFF"></path>
                    <rect id="Rectangle-path" fill="#000000" opacity="0.05" x="9.4" y="33.8" width="31.6" height="6.6"></rect>
                    <path d="M105.3,148 L105.3,94.8 L105.3,70 C105.3,64.5 109.8,60 115.3,60 L160.3,60 C163.1,60 165.3,62.2 165.3,65 L165.3,65 C165.2,65 165.1,65 165.1,65 L116.3,65 C113,65 110.3,67.7 110.3,71 L110.3,99.8 L110.3,148 L105.3,148 Z" id="Shape" fill="#FFFFFF" opacity="0.5"></path>
                    <rect id="Rectangle-path" fill="#000000" opacity="0.06" x="132.8" y="71" width="22.2" height="4.7"></rect>
                    <rect id="Rectangle-path" fill="#000000" opacity="0.05" x="134.3" y="52.5" width="20.7" height="3.4"></rect>
                    <path d="M145,45.4 L158.1,45.4 L158.1,43.1 L144.6,43.1 C145.3,42.4 146.3,42 147.4,42 L139.4,42 C138.3,42 137.4,42.4 136.6,43.1 L129.7,43.1 L129.7,45.4 L133.8,45.4 C134.7,45.4 135.3,46.1 135.3,46.9 C135.3,46.9 135.3,46.9 135.3,46.9 L135.3,47.9 C135.3,50.1 137.1,51.9 139.3,51.9 L147.3,51.9 C145.1,51.9 143.3,50.1 143.3,47.9 L143.3,47.2 C143.3,46.3 144.1,45.5 145,45.4 L145,45.4 Z" id="Shape" fill="#FFFFFF"></path>
                    <rect id="Rectangle-path" fill="#FFFFFF" x="139.1" y="55.9" width="6" height="4.6"></rect>
                    <polygon id="Shape" fill="#FFFFFF" opacity="0.5" points="172.9 153.8 132.8 153.8 132.8 149 165.3 149"></polygon>
                </g>
                <g id="lines_3_" stroke="#D3D5E6" stroke-linecap="round" stroke-linejoin="round">
                    <path d="M142.3,151 L198.3,151 C206,151 212.3,157.3 212.3,165 L212.3,165 L142.3,165 L142.3,97.8 L142.3,73 C142.3,67.5 146.8,63 152.3,63 L197.3,63 C200.1,63 202.3,65.2 202.3,68 C202.3,69.4 201.7,70.6 200.8,71.5 C199.9,72.4 198.6,73 197.3,73 L157.3,73 C154.5,73 152.3,75.2 152.3,78 L152.3,151" id="Shape" stroke-width="4"></path>
                    <path d="M170.3,73 L170.3,123 C170.3,128.5 174.8,133 180.3,133 L180.3,133 C185.8,133 190.3,128.5 190.3,123 L190.3,73" id="Shape" stroke-width="4"></path>
                    <path d="M190.3,63 L190.3,54" id="Shape" stroke-width="4"></path>
                    <path d="M170.3,54 L170.3,63" id="Shape" stroke-width="4"></path>
                    <path d="M169.3,54 L191.3,54 C193.5,54 195.3,52.2 195.3,50 L195.3,48 C195.3,45.8 193.5,44 191.3,44 L169.3,44 C167.1,44 165.3,45.8 165.3,48 L165.3,50 C165.3,52.2 167.1,54 169.3,54 Z" id="Shape" stroke-width="4"></path>
                    <circle id="Oval" stroke-width="2" cx="174.9" cy="20.8" r="2"></circle>
                    <circle id="Oval" stroke-width="2" cx="184.9" cy="3.8" r="3"></circle>
                    <path d="M45.9,37 L45.9,50.9" id="Shape" stroke-width="4"></path>
                    <path d="M75.9,37 L75.9,50.9" id="Shape" stroke-width="4"></path>
                    <path d="M41.9,37 L79.9,37 C83.2,37 85.9,34.3 85.9,31 L85.9,23 C85.9,19.7 83.2,17 79.9,17 L41.9,17 C38.6,17 35.9,19.7 35.9,23 L35.9,31 C35.9,34.3 38.6,37 41.9,37 Z" id="Shape" stroke-width="4"></path>
                    <path d="M119.3,95 L2.6,95" id="Shape" stroke-width="4"></path>
                    <path d="M45.8,17 L44.3,9.6 C43.5,5.9 46.4,2.4 50.2,2.4 L71.6,2.4 C75.4,2.4 78.2,5.9 77.5,9.6 L76,17" id="Shape" stroke-width="4"></path>
                    <path d="M49.8,37 L50.6,40.7 C51,42.6 52.6,43.9 54.5,43.9 L60.9,43.9 L67.3,43.9 C69.2,43.9 70.8,42.5 71.2,40.7 L72,37" id="Shape" stroke-width="4"></path>
                    <path d="M80.8,66 L91.5,76.8" id="Shape" stroke-width="2"></path>
                    <path d="M79.2,70.4 L87.2,78.4" id="Shape" stroke-width="2"></path>
                    <circle id="Oval" stroke-width="2" cx="22.8" cy="109.4" r="3"></circle>
                    <circle id="Oval" stroke-width="2" cx="47.8" cy="144.4" r="2"></circle>
                    <path d="M190.3,95 L170.3,95" id="Shape" stroke-width="4"></path>
                    <path d="M211,159 L180.3,159" id="Shape" stroke-width="2"></path>
                    <path d="M173.3,159 L165.7,159" id="Shape" stroke-width="2"></path>
                    <path d="M82.5,165 C105,156.3 120.9,134.5 120.9,109 C120.9,75.9 94,49 60.9,49 C27.8,49 0.9,75.9 0.9,109 C0.9,134.5 16.8,156.3 39.3,165" id="Shape" stroke-width="4"></path>
                    <path d="M82.5,165 L39.3,165" id="Shape" stroke-width="4"></path>
                </g>
                <g id="top_lights_1_" transform="translate(6.000000, 56.000000)" fill-rule="nonzero" fill="#FFFFFF" opacity="0.5">
                    <ellipse id="Oval" transform="translate(27.043400, 28.041900) rotate(-49.481359) translate(-27.043400, -28.041900) " cx="27.0434" cy="28.0419" rx="25.0001766" ry="13.0000918"></ellipse>
                    <circle id="Oval" cx="7.5" cy="54.5" r="3.5"></circle>
                    <path d="M175.1,21.6 L169.1,21.6 L169.1,67.2 C169.1,68.9 170.4,70.2 172.1,70.2 L172.1,70.2 C173.8,70.2 175.1,68.9 175.1,67.2 L175.1,21.6 Z" id="Shape"></path>
                </g>
            </g>
            <g id="main">
                <g id="color_3_" transform="translate(84.000000, 0.000000)">
                    <g id="XMLID_10_" transform="translate(0.000000, 178.000000)">
                        <path d="M109.5,20.3 C117.1,32.3 108.5,48 94.3,48 L18.4,48 C16,48 13.7,47.5 11.6,46.7 C1.7,42.7 -3.1,30.3 3.2,20.3 L10.6,8.7 C10.6,8.6 10.7,8.6 10.7,8.5 C21.9,-7.6 37.8,4.6 56.7,13.5 L56.7,13.5 C71.4,20.4 87.8,25.4 105.1,13.4 L109.5,20.3 Z" id="Shape" fill="url(#linearGradient-1)" fill-rule="nonzero"></path>
                        <path d="M109.5,20.3 C117.1,32.3 108.5,48 94.3,48 L18.4,48 C16,48 13.7,47.5 11.6,46.7 C1.7,42.7 -3.1,30.3 3.2,20.3 L10.6,8.7 C10.6,8.6 10.7,8.6 10.7,8.5 C21.9,-7.6 37.8,4.6 56.7,13.5 L56.7,13.5 C71.4,20.4 87.8,25.4 105.1,13.4 L109.5,20.3 Z" id="Shape" stroke="#000000" stroke-width="0.5" stroke-linecap="round" stroke-linejoin="round"></path>
                    </g>
                    <g id="XMLID_9_" transform="translate(56.000000, 178.000000)" fill-rule="nonzero" fill="url(#linearGradient-2)">
                        <path d="M43.8,5 L49.1,13.3 C31.8,25.3 15.4,20.4 0.7,13.4 C18,5.3 32.8,-5.6 43.8,5 Z" id="Shape"></path>
                    </g>
                    <g id="XMLID_6_" opacity="0.65" transform="translate(10.000000, 113.000000)" fill-rule="nonzero" fill="#FFFFFF">
                        <g id="Group">
                            <path d="M61.2,25 L89.8,70 C78.9,59.4 64,70.3 46.7,78.5 L46.7,78.5 C27.8,69.6 11.9,57.4 0.7,73.5 L31.5,25 C33.3,22.1 34.3,18.8 34.3,15.3 L34.3,0.5 L58.3,0.5 L58.3,0.5 L58.3,15.3 C58.4,18.8 59.3,22.2 61.2,25 Z" id="Shape"></path>
                        </g>
                    </g>
                    <g id="XMLID_5_" transform="translate(80.000000, 0.000000)" fill-rule="nonzero" fill="#19D2FF">
                        <g id="Group">
                            <path d="M36.8,3.2 C39.9,6.3 39.9,11.4 36.8,14.5 L18.4,32.9 L15.1,29.6 L10.4,24.9 L7,21.5 L25.4,3.1 C27,1.5 29,0.7 31,0.7 C33.2,0.9 35.3,1.6 36.8,3.2 Z" id="Shape"></path>
                            <path d="M18.4,32.9 C20,34.5 20,37 18.4,38.5 C17.6,39.3 16.6,39.7 15.6,39.7 C14.6,39.7 13.6,39.3 12.8,38.5 L1.5,27.2 C-0.1,25.6 -0.1,23.1 1.5,21.5 C2.3,20.7 3.3,20.3 4.3,20.3 C5.3,20.3 6.3,20.7 7.1,21.5 L10.5,24.9 L15.2,29.6 L18.4,32.9 Z" id="Shape"></path>
                        </g>
                    </g>
                    <g id="XMLID_8_" transform="translate(58.000000, 27.000000)" fill-rule="nonzero" fill="#ECF7FF">
                        <polygon id="Shape" points="34.8 11.5 23.5 22.9 23.5 22.9 0.8 22.9 23.5 0.2"></polygon>
                    </g>
                    <g id="XMLID_7_" transform="translate(38.000000, 97.000000)" fill-rule="nonzero" fill="#ECF7FF">
                        <path d="M36.3,6.6 L36.3,10.6 C36.3,13.9 33.6,16.6 30.3,16.6 L30.3,16.6 L6.3,16.6 C3,16.6 0.3,13.9 0.3,10.6 L0.3,6.6 C0.3,3.3 3,0.6 6.3,0.6 L30.3,0.6 C33.6,0.6 36.3,3.3 36.3,6.6 Z" id="Shape"></path>
                    </g>
                    <g id="XMLID_4_" transform="translate(50.000000, 49.000000)" fill-rule="nonzero">
                        <g id="Group">
                            <path d="M31.5,0.9 L20.2,12.2 C18.6,13.8 16.1,13.8 14.6,12.2 L8.9,6.5 C7.3,4.9 7.3,2.4 8.9,0.9 L31.5,0.9 Z" id="Shape" fill="url(#linearGradient-3)"></path>
                            <path d="M14.5,12.2 L10.3,16.4 C8.7,18 6.2,18 4.7,16.4 C3.9,15.6 3.5,14.6 3.5,13.6 C3.5,12.6 3.9,11.6 4.7,10.8 L8.9,6.6 L14.5,12.2 Z" id="Shape" fill="url(#linearGradient-4)"></path>
                            <path d="M4.6,16.4 C18,38.4 -8.8,38.4 4.6,16.4 L4.6,16.4 Z" id="Shape" fill="url(#linearGradient-5)"></path>
                        </g>
                    </g>
                    <path d="M18.4,226 L8.5,226 C9.5,225.6 10.6,225.2 11.6,224.7 C13.6,225.5 15.9,226 18.4,226 Z" id="Shape" fill="#19D2FF" fill-rule="nonzero"></path>
                </g>
                <g id="shadows_1_" transform="translate(122.000000, 4.000000)" fill-rule="nonzero">
                    <path d="M16.3,103.6 L16.3,99.6 C16.3,99.6 16.3,99.6 16.3,99.6 C16.3,98.8 17,98.2 17.7,98.2 L36.1,98.2 L32.2,93.9 L20.2,93.9 C20.8,93.7 21.5,93.6 22.1,93.6 L12.2,93.6 C11.5,93.6 10.8,93.7 10.2,93.9 L2.4,93.9 L0.2,98.2 L4.7,98.2 C5.5,98.2 6.1,98.8 6.2,99.6 L6.2,99.6 L6.2,103.6 C6.2,106.9 8.9,109.6 12.2,109.6 L22.2,109.6 C19,109.6 16.3,106.9 16.3,103.6 Z" id="Shape" fill="#FFFFFF"></path>
                    <rect id="Rectangle-path" fill="#000000" opacity="0.1" x="5.8" y="110.1" width="24.9" height="4.8"></rect>
                    <path d="M19.7,188 C42.9,170.2 62.6,171.7 67.1,187.4 C48,204.5 19.7,188 19.7,188 Z" id="Shape" fill="#000000" opacity="0"></path>
                    <path d="M12.8,71.3 C12.3,76.4 18.9,75.2 16.7,64.5 C13.6,66.6 12.8,71.3 12.8,71.3 Z" id="Shape" fill="#FFFFFF" opacity="0.65"></path>
                    <polygon id="Shape" fill="#FFFFFF" opacity="0.65" points="16.6 60.6 23.4 54.1 19.4 50.9 15.1 57.1"></polygon>
                    <g id="Group" opacity="0.35" transform="translate(45.000000, 0.000000)" fill="#FFFFFF">
                        <path d="M11.1,24.6 C10.3,23.8 9.3,23.4 8.3,23.4 C7.3,23.4 6.3,23.8 5.5,24.6 C3.9,26.2 3.9,28.7 5.5,30.3 L1.5,26.3 C-0.1,24.7 -0.1,22.2 1.5,20.6 C2.3,19.8 3.3,19.4 4.3,19.4 C5.3,19.4 6.3,19.8 7.1,20.6 L11.1,24.6 Z" id="Shape"></path>
                        <path d="M10.3,22.4 L28.9,3.8 C29.7,3 29.7,1.8 28.9,1 L28.9,1 C28.1,0.2 26.9,0.2 26.1,1 L7.5,19.6 L10.3,22.4 Z" id="Shape"></path>
                    </g>
                </g>
                <g id="lines_2_" stroke="#484D78" stroke-linecap="round" stroke-linejoin="round">
                    <path d="M260.3,226 L7.3,226" id="Shape" stroke-width="4"></path>
                    <path d="M279.3,226 L267.3,226" id="Shape" stroke-width="4"></path>
                    <path d="M128.3,113.6 L152.3,113.6 C155.6,113.6 158.3,110.9 158.3,107.6 L158.3,103.6 C158.3,100.3 155.6,97.6 152.3,97.6 L128.3,97.6 C125,97.6 122.3,100.3 122.3,103.6 L122.3,107.6 C122.3,110.9 125,113.6 128.3,113.6 Z" id="Shape" stroke-width="4"></path>
                    <path d="M128.3,113.6 L128.3,128.4 C128.3,131.8 127.3,135.2 125.5,138.1 L87.2,198.4 C79.6,210.4 88.2,226.1 102.4,226.1" id="Shape" stroke-width="4"></path>
                    <path d="M178.3,226 C192.5,226 201.1,210.3 193.5,198.3 L155.2,138 C153.4,135.1 152.4,131.8 152.4,128.3 L152.4,113.5" id="Shape" stroke-width="4"></path>
                    <path d="M95.6,224.7 C94.6,225.2 93.6,225.6 92.5,226" id="Shape" stroke-width="4"></path>
                    <path d="M189.1,191.4 C149.4,219 114.2,157 94.4,187.1" id="Shape" stroke-width="4"></path>
                    <path d="M183.8,183 C172.8,172.4 158,183.3 140.7,191.5 L140.7,191.5" id="Shape" stroke-width="4"></path>
                    <g id="Group" transform="translate(134.000000, 0.000000)">
                        <path d="M42.8,38.6 L31.5,27.3 C29.9,25.7 29.9,23.2 31.5,21.6 L31.5,21.6 C33.1,20 35.6,20 37.2,21.6 L48.5,32.9 C50.1,34.5 50.1,37 48.5,38.6 L48.5,38.6 C46.9,40.1 44.3,40.1 42.8,38.6 Z" id="Shape" stroke-width="4"></path>
                        <path d="M48.4,32.9 L66.8,14.5 C69.9,11.4 69.9,6.3 66.8,3.2 L66.8,3.2 C63.7,0.1 58.6,0.1 55.5,3.2 L37.1,21.6" id="Shape" stroke-width="4"></path>
                        <path d="M42.8,38.6 L20.2,61.2 C18.6,62.8 16.1,62.8 14.5,61.2 L8.8,55.5 C7.2,53.9 7.2,51.4 8.8,49.8 L31.4,27.2" id="Shape" stroke-width="4"></path>
                        <path d="M14.5,61.2 L10.3,65.4 C8.7,67 6.2,67 4.6,65.4 L4.6,65.4 C3,63.8 3,61.3 4.6,59.7 L8.8,55.5" id="Shape" stroke-width="4"></path>
                        <path d="M4.6,65.4 C-8.8,87.4 18,87.4 4.6,65.4" id="Shape" stroke-width="4"></path>
                        <path d="M8.8,49.9 L31.5,49.9" id="Shape" stroke-width="4"></path>
                        <path d="M51.2,23.6 L45.2,29.6" id="Shape" stroke-width="2"></path>
                        <path d="M40.5,25 L43,22.5" id="Shape" stroke-width="2"></path>
                    </g>
                </g>
                <g id="top_lights" transform="translate(94.000000, 31.000000)" fill-rule="nonzero" fill="#FFFFFF">
                    <path d="M29.5,123.5 L1.7,166.3 C-0.9,170.3 2,175.6 6.7,175.6 L22.4,175.6 C27.7,175.6 32.3,172 33.5,166.8 L42.4,129.7 C43,127.3 42.1,124.9 40.1,123.5 L38,122 C35.3,119.9 31.4,120.6 29.5,123.5 Z" id="Shape" opacity="0.5"></path>
                    <path d="M72.7,0.3 L54,18.9 C53.2,19.7 53.2,20.9 54,21.7 L54,21.7 C54.8,22.5 56,22.5 56.8,21.7 L75.4,3.1 L72.7,0.3 Z" id="Shape" opacity="0.65"></path>
                    <circle id="Oval" opacity="0.65" cx="39.5" cy="114" r="3.4"></circle>
                </g>
            </g>
        </g>
    </g>
</svg>